<svg width="19" height="15" viewBox="0 0 19 15" fill="none" xmlns="http://www.w3.org/2000/svg">
<path d="M12.0769 14.5L0.49999 14.5V10.6538C0.49999 8.52635 0.500854 6.97597 0.646088 5.78036C0.789906 4.5964 1.06889 3.82761 1.57816 3.23133C1.73126 3.05207 1.89822 2.88512 2.07748 2.73201C2.67376 2.22275 3.44255 1.94376 4.62651 1.79994C5.82211 1.65471 7.3725 1.65385 9.49998 1.65385H12.0769C13.9036 1.65385 14.7032 1.65955 15.3387 1.8576C16.7506 2.29757 17.8562 3.40318 18.2962 4.81508C18.4943 5.45064 18.5 6.2502 18.5 8.07692C18.5 9.90365 18.4943 10.7032 18.2962 11.3388C17.8562 12.7507 16.7506 13.8563 15.3387 14.2962C14.7032 14.4943 13.9036 14.5 12.0769 14.5Z" fill="#EAEDFE" stroke="#808080"/>
<circle cx="16.5" cy="2.5" r="2.5" fill="#FF3535"/>
<line x1="3.71429" y1="6.52307" x2="10.5" y2="6.52307" stroke="#838383" stroke-width="0.8"/>
<line x1="3.71429" y1="10.85" x2="11.8571" y2="10.85" stroke="#838383" stroke-width="0.8"/>
</svg>
